ffmpeg started on 2025-05-24 at 14:34:05
Report written to "D:\Convert\FFMetrics\reports\psnr_report-6.txt"
Log level: 32
Command line:
ffmpeg -hide_banner -nostdin -i "G:\\\xc0\xed\xe8\xec\xe5\\\xce\xed\xe3\xee\xe8\xed\xe3\xe8\\!_33_\xc7\xe8\xec\xe0_2024\\DreamCast\\\xc2\xf0\xe5\xec\xff \xef\xfb\xf2\xee\xea, \xef\xf0\xe8\xed\xf6\xe5\xf1\xf1\xe0!\\[DC] Hime-sama Goumon no Jikan Desu - 04_Telegram_HEVC.mkv" -i "G:\\\xc0\xed\xe8\xec\xe5\\\xce\xed\xe3\xee\xe8\xed\xe3\xe8\\!_33_\xc7\xe8\xec\xe0_2024\\DreamCast\\\xc2\xf0\xe5\xec\xff \xef\xfb\xf2\xee\xea, \xef\xf0\xe8\xed\xf6\xe5\xf1\xf1\xe0!\\[DC] Hime-sama Goumon no Jikan Desu - 04_Telegram.mp4" -lavfi "[0:v]settb=AVTB,setpts=PTS-STARTPTS,format=pix_fmts=yuv420p10,fps=24000/1001,scale=1920:1080:flags=bicubic[main];[1:v]settb=AVTB,setpts=PTS-STARTPTS,format=pix_fmts=yuv420p,fps=24000/1001,scale=1920:1080:flags=bicubic[ref];[main][ref]psnr=eof_action=endall:stats_file='D\\:/Convert/FFMetrics/logs/psnr_logfile-6.txt'" -f null -
Input #0, matroska,webm, from 'G:\Аниме\Онгоинги\!_33_Зима_2024\DreamCast\Время пыток, принцесса!\[DC] Hime-sama Goumon no Jikan Desu - 04_Telegram_HEVC.mkv':
  Metadata:
    COMPATIBLE_BRANDS: isomiso2avc1mp41
    MAJOR_BRAND     : isom
    MINOR_VERSION   : 512
    ENCODER         : Lavf61.7.100
  Duration: 00:23:44.34, start: -0.021000, bitrate: 1179 kb/s
  Stream #0:0: Video: hevc (Main 10), yuv420p10le(tv, bt709, progressive), 1920x1080 [SAR 1:1 DAR 16:9], 23.98 fps, 23.98 tbr, 1k tbn (default)
      Metadata:
        HANDLER_NAME    : VideoHandler
        VENDOR_ID       : [0][0][0][0]
        ENCODER         : Lavc61.19.100 libx265
        BPS             : 982056
        DURATION        : 00:23:43.964708333
        NUMBER_OF_FRAMES: 34141
        NUMBER_OF_BYTES : 174801550
        _STATISTICS_WRITING_APP: mkvpropedit v66.0.0 ('Josie') 64-bit
        _STATISTICS_WRITING_DATE_UTC: 2025-05-21 14:43:32
        _STATISTICS_TAGS: BPS DURATION NUMBER_OF_FRAMES NUMBER_OF_BYTES
  Stream #0:1: Audio: aac (LC), 48000 Hz, stereo, fltp (default)
      Metadata:
        HANDLER_NAME    : SoundHandler
        VENDOR_ID       : [0][0][0][0]
        ENCODER         : Lavc61.19.100 aac
        BPS             : 193185
        DURATION        : 00:23:44.341000000
        NUMBER_OF_FRAMES: 66767
        NUMBER_OF_BYTES : 34395240
        _STATISTICS_WRITING_APP: mkvpropedit v66.0.0 ('Josie') 64-bit
        _STATISTICS_WRITING_DATE_UTC: 2025-05-21 14:43:32
        _STATISTICS_TAGS: BPS DURATION NUMBER_OF_FRAMES NUMBER_OF_BYTES
Input #1, mov,mp4,m4a,3gp,3g2,mj2, from 'G:\Аниме\Онгоинги\!_33_Зима_2024\DreamCast\Время пыток, принцесса!\[DC] Hime-sama Goumon no Jikan Desu - 04_Telegram.mp4':
  Metadata:
    major_brand     : isom
    minor_version   : 512
    compatible_brands: isomiso2avc1mp41
    encoder         : Lavf60.16.100
  Duration: 00:23:44.30, start: 0.000000, bitrate: 3722 kb/s
  Stream #1:0[0x1](und): Video: h264 (High) (avc1 / 0x31637661), yuv420p(tv, bt709, progressive), 1920x1080 [SAR 1:1 DAR 16:9], 3575 kb/s, 23.98 fps, 23.98 tbr, 24k tbn (default)
      Metadata:
        handler_name    : VideoHandler
        vendor_id       : [0][0][0][0]
        encoder         : Lavc60.31.102 h264_qsv
  Stream #1:1[0x2](und): Audio: aac (HE-AACv2) (mp4a / 0x6134706D), 48000 Hz, stereo, fltp, 144 kb/s (default)
      Metadata:
        handler_name    : SoundHandler
        vendor_id       : [0][0][0][0]
Stream mapping:
  Stream #0:0 (hevc) -> settb:default
  Stream #1:0 (h264) -> settb:default
  psnr:default -> Stream #0:0 (wrapped_avframe)
  Stream #0:1 -> #0:1 (aac (native) -> pcm_s16le (native))
Output #0, null, to 'pipe:':
  Metadata:
    COMPATIBLE_BRANDS: isomiso2avc1mp41
    MAJOR_BRAND     : isom
    MINOR_VERSION   : 512
    encoder         : Lavf61.7.100
  Stream #0:0: Video: wrapped_avframe, yuv420p10le(tv, bt709, progressive), 1920x1080 [SAR 1:1 DAR 16:9], q=2-31, 200 kb/s, 23.98 fps, 23.98 tbn
      Metadata:
        encoder         : Lavc61.19.100 wrapped_avframe
  Stream #0:1: Audio: pcm_s16le, 48000 Hz, stereo, s16, 1536 kb/s (default)
      Metadata:
        HANDLER_NAME    : SoundHandler
        VENDOR_ID       : [0][0][0][0]
        _STATISTICS_TAGS: BPS DURATION NUMBER_OF_FRAMES NUMBER_OF_BYTES
        BPS             : 193185
        DURATION        : 00:23:44.341000000
        NUMBER_OF_FRAMES: 66767
        NUMBER_OF_BYTES : 34395240
        _STATISTICS_WRITING_APP: mkvpropedit v66.0.0 ('Josie') 64-bit
        _STATISTICS_WRITING_DATE_UTC: 2025-05-21 14:43:32
        encoder         : Lavc61.19.100 pcm_s16le
frame=  178 fps=0.0 q=-0.0 size=N/A time=00:00:07.42 bitrate=N/A speed=14.3x    frame=  411 fps=398 q=-0.0 size=N/A time=00:00:17.14 bitrate=N/A speed=16.6x    frame=  650 fps=417 q=-0.0 size=N/A time=00:00:27.11 bitrate=N/A speed=17.4x    frame=  903 fps=436 q=-0.0 size=N/A time=00:00:37.70 bitrate=N/A speed=18.2x    frame= 1164 fps=451 q=-0.0 size=N/A time=00:00:48.54 bitrate=N/A speed=18.8x    frame= 1436 fps=465 q=-0.0 size=N/A time=00:00:59.89 bitrate=N/A speed=19.4x    frame= 1716 fps=474 q=-0.0 size=N/A time=00:01:11.57 bitrate=N/A speed=19.8x    frame= 1990 fps=482 q=-0.0 size=N/A time=00:01:22.99 bitrate=N/A speed=20.1x    frame= 2251 fps=485 q=-0.0 size=N/A time=00:01:33.88 bitrate=N/A speed=20.2x    frame= 2535 fps=491 q=-0.0 size=N/A time=00:01:45.73 bitrate=N/A speed=20.5x    frame= 2814 fps=496 q=-0.0 size=N/A time=00:01:57.36 bitrate=N/A speed=20.7x    frame= 3024 fps=489 q=-0.0 size=N/A time=00:02:06.12 bitrate=N/A speed=20.4x    frame= 3232 fps=482 q=-0.0 size=N/A time=00:02:14.80 bitrate=N/A speed=20.1x    frame= 3458 fps=479 q=-0.0 size=N/A time=00:02:24.22 bitrate=N/A speed=  20x    frame= 3715 fps=480 q=-0.0 size=N/A time=00:02:34.94 bitrate=N/A speed=  20x    frame= 3948 fps=479 q=-0.0 size=N/A time=00:02:44.66 bitrate=N/A speed=  20x    frame= 4169 fps=475 q=-0.0 size=N/A time=00:02:53.88 bitrate=N/A speed=19.8x    frame= 4357 fps=469 q=-0.0 size=N/A time=00:03:01.72 bitrate=N/A speed=19.6x    frame= 4550 fps=464 q=-0.0 size=N/A time=00:03:09.77 bitrate=N/A speed=19.4x    frame= 4744 fps=460 q=-0.0 size=N/A time=00:03:17.86 bitrate=N/A speed=19.2x    frame= 4967 fps=459 q=-0.0 size=N/A time=00:03:27.16 bitrate=N/A speed=19.1x    frame= 5224 fps=460 q=-0.0 size=N/A time=00:03:37.88 bitrate=N/A speed=19.2x    frame= 5484 fps=462 q=-0.0 size=N/A time=00:03:48.72 bitrate=N/A speed=19.3x    frame= 5746 fps=464 q=-0.0 size=N/A time=00:03:59.65 bitrate=N/A speed=19.4x    frame= 6027 fps=467 q=-0.0 size=N/A time=00:04:11.37 bitrate=N/A speed=19.5x    frame= 6286 fps=469 q=-0.0 size=N/A time=00:04:22.17 bitrate=N/A speed=19.6x    frame= 6489 fps=466 q=-0.0 size=N/A time=00:04:30.64 bitrate=N/A speed=19.4x    frame= 6770 fps=469 q=-0.0 size=N/A time=00:04:42.36 bitrate=N/A speed=19.6x    frame= 7023 fps=470 q=-0.0 size=N/A time=00:04:52.91 bitrate=N/A speed=19.6x    frame= 7249 fps=468 q=-0.0 size=N/A time=00:05:02.34 bitrate=N/A speed=19.5x    frame= 7524 fps=471 q=-0.0 size=N/A time=00:05:13.81 bitrate=N/A speed=19.6x    frame= 7805 fps=473 q=-0.0 size=N/A time=00:05:25.53 bitrate=N/A speed=19.7x    frame= 8069 fps=474 q=-0.0 size=N/A time=00:05:36.54 bitrate=N/A speed=19.8x    frame= 8318 fps=474 q=-0.0 size=N/A time=00:05:46.92 bitrate=N/A speed=19.8x    frame= 8562 fps=474 q=-0.0 size=N/A time=00:05:57.10 bitrate=N/A speed=19.8x    frame= 8806 fps=474 q=-0.0 size=N/A time=00:06:07.28 bitrate=N/A speed=19.8x    frame= 9055 fps=475 q=-0.0 size=N/A time=00:06:17.66 bitrate=N/A speed=19.8x    frame= 9272 fps=473 q=-0.0 size=N/A time=00:06:26.71 bitrate=N/A speed=19.7x    frame= 9488 fps=472 q=-0.0 size=N/A time=00:06:35.72 bitrate=N/A speed=19.7x    frame= 9755 fps=473 q=-0.0 size=N/A time=00:06:46.86 bitrate=N/A speed=19.7x    frame=10000 fps=473 q=-0.0 size=N/A time=00:06:57.08 bitrate=N/A speed=19.7x    frame=10280 fps=475 q=-0.0 size=N/A time=00:07:08.76 bitrate=N/A speed=19.8x    frame=10521 fps=474 q=-0.0 size=N/A time=00:07:18.81 bitrate=N/A speed=19.8x    frame=10767 fps=474 q=-0.0 size=N/A time=00:07:29.07 bitrate=N/A speed=19.8x    frame=11022 fps=475 q=-0.0 size=N/A time=00:07:39.70 bitrate=N/A speed=19.8x    frame=11248 fps=474 q=-0.0 size=N/A time=00:07:49.13 bitrate=N/A speed=19.8x    frame=11464 fps=473 q=-0.0 size=N/A time=00:07:58.14 bitrate=N/A speed=19.7x    frame=11723 fps=474 q=-0.0 size=N/A time=00:08:08.94 bitrate=N/A speed=19.8x    frame=11995 fps=475 q=-0.0 size=N/A time=00:08:20.29 bitrate=N/A speed=19.8x    frame=12278 fps=476 q=-0.0 size=N/A time=00:08:32.09 bitrate=N/A speed=19.9x    frame=12537 fps=477 q=-0.0 size=N/A time=00:08:42.89 bitrate=N/A speed=19.9x    frame=12818 fps=478 q=-0.0 size=N/A time=00:08:54.61 bitrate=N/A speed=19.9x    frame=13083 fps=479 q=-0.0 size=N/A time=00:09:05.67 bitrate=N/A speed=  20x    frame=13326 fps=479 q=-0.0 size=N/A time=00:09:15.80 bitrate=N/A speed=  20x    frame=13575 fps=479 q=-0.0 size=N/A time=00:09:26.19 bitrate=N/A speed=  20x    frame=13862 fps=480 q=-0.0 size=N/A time=00:09:38.16 bitrate=N/A speed=  20x    frame=14076 fps=479 q=-0.0 size=N/A time=00:09:47.08 bitrate=N/A speed=  20x    frame=14324 fps=479 q=-0.0 size=N/A time=00:09:57.43 bitrate=N/A speed=  20x    frame=14577 fps=479 q=-0.0 size=N/A time=00:10:07.98 bitrate=N/A speed=  20x    frame=14764 fps=477 q=-0.0 size=N/A time=00:10:15.78 bitrate=N/A speed=19.9x    frame=14986 fps=476 q=-0.0 size=N/A time=00:10:25.04 bitrate=N/A speed=19.9x    frame=15239 fps=477 q=-0.0 size=N/A time=00:10:35.59 bitrate=N/A speed=19.9x    frame=15440 fps=475 q=-0.0 size=N/A time=00:10:43.97 bitrate=N/A speed=19.8x    frame=15671 fps=475 q=-0.0 size=N/A time=00:10:53.61 bitrate=N/A speed=19.8x    frame=15885 fps=474 q=-0.0 size=N/A time=00:11:02.53 bitrate=N/A speed=19.8x    frame=16152 fps=475 q=-0.0 size=N/A time=00:11:13.67 bitrate=N/A speed=19.8x    frame=16424 fps=475 q=-0.0 size=N/A time=00:11:25.01 bitrate=N/A speed=19.8x    frame=16700 fps=476 q=-0.0 size=N/A time=00:11:36.52 bitrate=N/A speed=19.9x    frame=16975 fps=477 q=-0.0 size=N/A time=00:11:47.99 bitrate=N/A speed=19.9x    frame=17242 fps=478 q=-0.0 size=N/A time=00:11:59.13 bitrate=N/A speed=19.9x    frame=17480 fps=477 q=-0.0 size=N/A time=00:12:09.06 bitrate=N/A speed=19.9x    frame=17722 fps=477 q=-0.0 size=N/A time=00:12:19.15 bitrate=N/A speed=19.9x    frame=17980 fps=478 q=-0.0 size=N/A time=00:12:29.91 bitrate=N/A speed=19.9x    frame=18246 fps=478 q=-0.0 size=N/A time=00:12:41.01 bitrate=N/A speed=19.9x    frame=18514 fps=479 q=-0.0 size=N/A time=00:12:52.18 bitrate=N/A speed=  20x    frame=18791 fps=479 q=-0.0 size=N/A time=00:13:03.74 bitrate=N/A speed=  20x    frame=19013 fps=479 q=-0.0 size=N/A time=00:13:13.00 bitrate=N/A speed=  20x    frame=19253 fps=479 q=-0.0 size=N/A time=00:13:23.01 bitrate=N/A speed=  20x    frame=19525 fps=479 q=-0.0 size=N/A time=00:13:34.35 bitrate=N/A speed=  20x    frame=19758 fps=479 q=-0.0 size=N/A time=00:13:44.07 bitrate=N/A speed=  20x    frame=20000 fps=479 q=-0.0 size=N/A time=00:13:54.16 bitrate=N/A speed=  20x    frame=20267 fps=479 q=-0.0 size=N/A time=00:14:05.30 bitrate=N/A speed=  20x    frame=20506 fps=479 q=-0.0 size=N/A time=00:14:15.27 bitrate=N/A speed=  20x    frame=20769 fps=480 q=-0.0 size=N/A time=00:14:26.24 bitrate=N/A speed=  20x    frame=21032 fps=480 q=-0.0 size=N/A time=00:14:37.20 bitrate=N/A speed=  20x    frame=21232 fps=479 q=-0.0 size=N/A time=00:14:45.55 bitrate=N/A speed=  20x    frame=21488 fps=479 q=-0.0 size=N/A time=00:14:56.22 bitrate=N/A speed=  20x    frame=21725 fps=479 q=-0.0 size=N/A time=00:15:06.11 bitrate=N/A speed=  20x    frame=21963 fps=478 q=-0.0 size=N/A time=00:15:16.04 bitrate=N/A speed=  20x    frame=22240 fps=479 q=-0.0 size=N/A time=00:15:27.59 bitrate=N/A speed=  20x    frame=22436 fps=478 q=-0.0 size=N/A time=00:15:35.76 bitrate=N/A speed=19.9x    frame=22671 fps=478 q=-0.0 size=N/A time=00:15:45.56 bitrate=N/A speed=19.9x    frame=22947 fps=478 q=-0.0 size=N/A time=00:15:57.08 bitrate=N/A speed=  20x    frame=23213 fps=479 q=-0.0 size=N/A time=00:16:08.17 bitrate=N/A speed=  20x    frame=23505 fps=480 q=-0.0 size=N/A time=00:16:20.35 bitrate=N/A speed=  20x    frame=23764 fps=480 q=-0.0 size=N/A time=00:16:31.15 bitrate=N/A speed=  20x    frame=24027 fps=480 q=-0.0 size=N/A time=00:16:42.12 bitrate=N/A speed=  20x    frame=24293 fps=481 q=-0.0 size=N/A time=00:16:53.22 bitrate=N/A speed=  20x    frame=24572 fps=481 q=-0.0 size=N/A time=00:17:04.85 bitrate=N/A speed=20.1x    frame=24853 fps=482 q=-0.0 size=N/A time=00:17:16.57 bitrate=N/A speed=20.1x    frame=25095 fps=482 q=-0.0 size=N/A time=00:17:26.67 bitrate=N/A speed=20.1x    frame=25370 fps=482 q=-0.0 size=N/A time=00:17:38.14 bitrate=N/A speed=20.1x    frame=25636 fps=482 q=-0.0 size=N/A time=00:17:49.23 bitrate=N/A speed=20.1x    frame=25862 fps=482 q=-0.0 size=N/A time=00:17:58.66 bitrate=N/A speed=20.1x    frame=26097 fps=482 q=-0.0 size=N/A time=00:18:08.46 bitrate=N/A speed=20.1x    frame=26336 fps=482 q=-0.0 size=N/A time=00:18:18.43 bitrate=N/A speed=20.1x    frame=26590 fps=482 q=-0.0 size=N/A time=00:18:29.02 bitrate=N/A speed=20.1x    frame=26867 fps=482 q=-0.0 size=N/A time=00:18:40.57 bitrate=N/A speed=20.1x    frame=27148 fps=483 q=-0.0 size=N/A time=00:18:52.29 bitrate=N/A speed=20.1x    frame=27394 fps=483 q=-0.0 size=N/A time=00:19:02.55 bitrate=N/A speed=20.1x    frame=27586 fps=482 q=-0.0 size=N/A time=00:19:10.56 bitrate=N/A speed=20.1x    frame=27782 fps=481 q=-0.0 size=N/A time=00:19:18.74 bitrate=N/A speed=20.1x    frame=28063 fps=481 q=-0.0 size=N/A time=00:19:30.46 bitrate=N/A speed=20.1x    frame=28352 fps=482 q=-0.0 size=N/A time=00:19:42.51 bitrate=N/A speed=20.1x    frame=28598 fps=482 q=-0.0 size=N/A time=00:19:52.77 bitrate=N/A speed=20.1x    frame=28866 fps=482 q=-0.0 size=N/A time=00:20:03.95 bitrate=N/A speed=20.1x    frame=29111 fps=482 q=-0.0 size=N/A time=00:20:14.17 bitrate=N/A speed=20.1x    frame=29346 fps=482 q=-0.0 size=N/A time=00:20:23.97 bitrate=N/A speed=20.1x    frame=29601 fps=482 q=-0.0 size=N/A time=00:20:34.60 bitrate=N/A speed=20.1x    frame=29838 fps=482 q=-0.0 size=N/A time=00:20:44.49 bitrate=N/A speed=20.1x    frame=30094 fps=482 q=-0.0 size=N/A time=00:20:55.17 bitrate=N/A speed=20.1x    frame=30350 fps=482 q=-0.0 size=N/A time=00:21:05.84 bitrate=N/A speed=20.1x    frame=30603 fps=482 q=-0.0 size=N/A time=00:21:16.40 bitrate=N/A speed=20.1x    frame=30850 fps=482 q=-0.0 size=N/A time=00:21:26.70 bitrate=N/A speed=20.1x    frame=31113 fps=482 q=-0.0 size=N/A time=00:21:37.67 bitrate=N/A speed=20.1x    frame=31374 fps=483 q=-0.0 size=N/A time=00:21:48.55 bitrate=N/A speed=20.1x    frame=31674 fps=483 q=-0.0 size=N/A time=00:22:01.06 bitrate=N/A speed=20.2x    frame=31949 fps=484 q=-0.0 size=N/A time=00:22:12.53 bitrate=N/A speed=20.2x    frame=32169 fps=483 q=-0.0 size=N/A time=00:22:21.71 bitrate=N/A speed=20.2x    frame=32330 fps=482 q=-0.0 size=N/A time=00:22:28.43 bitrate=N/A speed=20.1x    frame=32511 fps=481 q=-0.0 size=N/A time=00:22:35.97 bitrate=N/A speed=20.1x    frame=32700 fps=480 q=-0.0 size=N/A time=00:22:43.86 bitrate=N/A speed=  20x    frame=32928 fps=480 q=-0.0 size=N/A time=00:22:53.37 bitrate=N/A speed=  20x    frame=33124 fps=479 q=-0.0 size=N/A time=00:23:01.54 bitrate=N/A speed=  20x    frame=33313 fps=478 q=-0.0 size=N/A time=00:23:09.42 bitrate=N/A speed=19.9x    frame=33513 fps=478 q=-0.0 size=N/A time=00:23:17.77 bitrate=N/A speed=19.9x    frame=33634 fps=476 q=-0.0 size=N/A time=00:23:22.81 bitrate=N/A speed=19.8x    frame=33806 fps=475 q=-0.0 size=N/A time=00:23:29.99 bitrate=N/A speed=19.8x    frame=34014 fps=474 q=-0.0 size=N/A time=00:23:38.66 bitrate=N/A speed=19.8x    [Parsed_psnr_10 @ 00000198854a4180] PSNR y:49.027727 u:50.310445 v:51.043153 average:49.507082 min:38.186929 max:inf
[out#0/null @ 00000198fd9beec0] video:14670KiB audio:267068KiB subtitle:0KiB other streams:0KiB global headers:0KiB muxing overhead: unknown
frame=34141 fps=474 q=-0.0 Lsize=N/A time=00:23:43.96 bitrate=N/A speed=19.8x    
